<svg xmlns="http://www.w3.org/2000/svg" viewBox="0 0 489 194"><path d="M353.6 138.3c-5.6 0-10.1-4.5-10.1-10.1V43.4c0-5.6 4.5-10.1 10.1-10.1s10.1 4.5 10.1 10.1v84.8c-.1 5.6-4.6 10.1-10.1 10.1z" fill="#ffffff"/><path d="M353.8 114.7c-3.3 0-6.5-1.6-8.5-4.6-3-4.7-1.7-10.9 2.9-13.9l45.5-29.7c4.7-3 10.9-1.7 13.9 2.9 3 4.7 1.7 10.9-2.9 13.9L359.2 113c-1.6 1.2-3.5 1.7-5.4 1.7z" fill="#ffffff"/><path d="M398.2 137.5c-3 0-6-1.4-8-4l-24-31.5c-3.4-4.4-2.5-10.7 1.9-14.1 4.4-3.4 10.7-2.5 14.1 1.9l24 31.5c3.4 4.4 2.5 10.7-1.9 14.1-1.8 1.4-3.9 2.1-6.1 2.1zM234.3 138.3c-5.6 0-10.1-4.5-10.1-10.1V43.4c0-5.6 4.5-10.1 10.1-10.1s10.1 4.5 10.1 10.1v84.8c0 5.6-4.5 10.1-10.1 10.1z" fill="#ffffff"/><path d="M248.5 138.2H235c-5.6 0-10.1-4.5-10.1-10.1V75.6c0-5.6 4.5-10.1 10.1-10.1h13.5c20 0 36.3 16.3 36.3 36.3s-16.3 36.4-36.3 36.4M245 118h3.4c8.9 0 16.2-7.2 16.2-16.2 0-8.9-7.2-16.2-16.2-16.2H245V118zM113.2 138.1c-5.6 0-10.1-4.6-10.1-10.2l.6-84.3c0-5.5 4.5-10 10.1-10h.1c5.6 0 10 4.6 10 10.2l-.6 84.3c-.1 5.6-4.6 10-10.1 10z" fill="#ffffff"/><path d="M155.5 139.1c-5.6 0-10.1-4.6-10.1-10.2l.2-32.1c0-6.3-4.8-11.4-10.7-11.4-2.9 0-5.5 1.1-7.6 3.2-2.1 2.1-3.3 5-3.3 8.1l-.2 32.1c0 5.5-4.5 10-10.1 10h-.1c-5.6 0-10-4.6-10-10.2l.2-32.1c.1-8.4 3.3-16.2 9.1-22.1 5.9-6 13.7-9.3 22.1-9.2 17.1.1 30.9 14.4 30.7 31.7l-.2 32.1c0 5.6-4.5 10.1-10 10.1zM475.4 139.2h-27.8c-13.2 0-24-10.8-24-24v-.9c0-13.2 10.8-24 24-24h27.8c5.6 0 10.1 4.5 10.1 10.1v28.8c0 5.5-4.5 10-10.1 10zm-27.8-28.8c-2.1 0-3.9 1.7-3.9 3.9v.9c0 2.1 1.7 3.9 3.9 3.9h17.7v-8.6h-17.7z" fill="#ffffff"/><path d="M478.9 139c-5.6 0-10.1-4.5-10.1-10.1V93.3c0-4.6-3.7-8.3-8.3-8.3h-22.3c-5.6 0-10.1-4.5-10.1-10.1s4.5-10.1 10.1-10.1h22.3c15.7 0 28.5 12.8 28.5 28.5v35.5c0 5.6-4.5 10.2-10.1 10.2zM53 140.2H10.1c-5.6 0-10.1-4.5-10.1-10.1S4.5 120 10.1 120H53c2.1 0 3.7-1.7 3.7-3.7 0-2.1-1.7-3.7-3.7-3.7H32.1c-5.6 0-10.1-4.5-10.1-10.1s4.5-10.1 10.1-10.1H53c13.2 0 23.9 10.7 23.9 23.9S66.1 140.2 53 140.2z" fill="#ffffff"/><path d="M53.7 112.7H32.9C19.7 112.7 9 101.9 9 88.8c0-13.2 10.7-23.9 23.9-23.9h41.3c5.6 0 10.1 4.5 10.1 10.1s-4.5 10.1-10.1 10.1H32.9c-2.1 0-3.7 1.7-3.7 3.7s1.7 3.7 3.7 3.7h20.8c5.6 0 10.1 4.5 10.1 10.1s-4.5 10.1-10.1 10.1z" fill="#ffffff"/><path d="M195.1 105c-5.6 0-10.1-4.5-10.1-10.1V42c0-5.6 4.5-10.1 10.1-10.1s10.1 4.5 10.1 10.1v52.9c0 5.6-4.5 10.1-10.1 10.1z" fill="#e0300e"/><ellipse cx="193.1" cy="10.2" rx="10.2" ry="10.2" fill="#ffffff"/><path d="M314.1 105c-5.6 0-10.1-4.5-10.1-10.1V42c0-5.6 4.5-10.1 10.1-10.1s10.1 4.5 10.1 10.1v52.9c0 5.6-4.5 10.1-10.1 10.1z" fill="#e0300e"/><ellipse cx="314.4" cy="10.2" rx="10.2" ry="10.2" fill="#ffffff"/><path d="M254.6 194c-37.8 0-68.8-30.1-68.8-67.6h18.7c0 26.9 22.3 49 50.2 49V194zm68.8-67.7c0 37.5-31 67.6-68.8 67.6v-18.7c27.9 0 50.2-22.1 50.2-49h18.6zm-137.6 0c0-5.2 4.2-9.3 9.3-9.3 5.2 0 9.3 4.2 9.3 9.3h-18.6zm119 0c0-5.2 4.2-9.3 9.3-9.3 5.2 0 9.3 4.2 9.3 9.3h-18.6z" fill="#e0300e"/></svg>